<svg xmlns="http://www.w3.org/2000/svg" version="1.1" xmlns:xlink="http://www.w3.org/1999/xlink" xmlns:svgjs="http://svgjs.dev/svgjs" width="2000" height="494" viewBox="0 0 2000 494"><g transform="matrix(1,0,0,1,8.339023935520004,10.73880048052581)"><svg viewBox="0 0 396 98" data-background-color="#ffffff" preserveAspectRatio="xMidYMid meet" height="494" width="2000" xmlns="http://www.w3.org/2000/svg" xmlns:xlink="http://www.w3.org/1999/xlink"><g id="tight-bounds" transform="matrix(1,0,0,1,0.2400000000000091,-0.24708892429455886)"><svg viewBox="0 0 395.52 98.49417784858912" height="98.49417784858912" width="395.52"><g><svg viewBox="0 0 600.5105657613738 149.54185493542076" height="98.49417784858912" width="395.52"><g><rect width="9.758204634783311" height="129.84820978473581" x="169.6873228156393" y="9.846822575342472" fill="#ffffff" opacity="1" stroke-width="0" stroke="transparent" fill-opacity="1" class="rect-qz-0" data-fill-palette-color="primary" rx="1%" id="qz-0" data-palette-color="#000000"></rect></g><g transform="matrix(1,0,0,1,204.9905657613737,20.667506724070456)"><svg viewBox="0 0 395.52 108.20684148727985" height="108.20684148727985" width="395.52"><g id="textblocktransform"><svg viewBox="0 0 395.52 108.20684148727985" height="108.20684148727985" width="395.52" id="textblock"><g><svg viewBox="0 0 395.52 108.20684148727985" height="108.20684148727985" width="395.52"><g transform="matrix(1,0,0,1,0,0)"><svg width="395.52" viewBox="3.05 -34.6 127.74 34.95" height="108.20684148727985" data-palette-color="#000000"><path d="M21.45-22.4L21.45-22.4Q21.45-24.25 21.1-25.33 20.75-26.4 19.88-26.95 19-27.5 17.98-27.68 16.95-27.85 15.15-27.85L15.15-27.85 15.15-16.85Q16.55-16.85 17.63-17.1 18.7-17.35 19.6-17.95 20.5-18.55 20.98-19.68 21.45-20.8 21.45-22.4ZM15.15-10.3L15.15-7.5Q15.15-3.45 13.65-1.73 12.15 0 9.05 0L9.05 0Q5.95 0 4.5-1.58 3.05-3.15 3.05-7.15L3.05-7.15 3.05-28.25Q3.05-31.3 4.7-32.77 6.35-34.25 9.05-34.25L9.05-34.25 17.95-34.25Q21.2-34.25 23.95-33.38 26.7-32.5 28.73-30.93 30.75-29.35 31.88-26.98 33-24.6 33-21.7L33-21.7Q33-18.15 30.95-15.53 28.9-12.9 25.55-11.6 22.2-10.3 18-10.3L18-10.3 15.15-10.3ZM37.15-30.8L37.15-30.8Q37.15-32.45 38.57-33.52 40-34.6 42.6-34.6L42.6-34.6Q48.05-34.6 48.05-30.8L48.05-30.8Q48.05-28.7 46.67-27.85 45.3-27 42.6-27L42.6-27Q40.25-27 38.7-27.9 37.15-28.8 37.15-30.8ZM48-18.35L48-5.35Q48-2.35 46.75-1.18 45.5 0 42.35 0L42.35 0Q39.4 0 38.32-1.38 37.25-2.75 37.25-5.9L37.25-5.9 37.25-18.2Q37.25-20.75 38.62-22.3 40-23.85 42.3-23.85L42.3-23.85Q45-23.85 46.5-22.68 48-21.5 48-18.35L48-18.35ZM67.34-18.7L67.34-18.7Q67.34-19.85 66.05-19.85L66.05-19.85Q65.09-19.85 64.34-18.8 63.6-17.75 63.2-16.18 62.8-14.6 62.8-12.9L62.8-12.9Q62.8-10.4 64.32-8.85 65.84-7.3 68.45-7.3L68.45-7.3Q71-7.3 72.84-7.9L72.84-7.9Q73.59-8.1 74.67-8.65 75.75-9.2 76.2-9.2L76.2-9.2Q76.9-9.2 77.34-8.95 77.8-8.7 77.97-8.35 78.15-8 78.15-7.6L78.15-7.6Q78.15-6.9 77.67-5.9 77.2-4.9 76.2-3.8 75.2-2.7 73.87-1.78 72.55-0.85 70.59-0.25 68.65 0.35 66.5 0.35L66.5 0.35Q60.3 0.35 56.3-2.98 52.3-6.3 52.3-12.1L52.3-12.1Q52.3-15.8 54.12-18.57 55.95-21.35 59.15-22.78 62.35-24.2 66.5-24.2L66.5-24.2Q70.45-24.2 73.02-23.28 75.59-22.35 76.7-20.8 77.8-19.25 77.8-17.1L77.8-17.1Q77.8-16.15 77.42-15.15 77.05-14.15 76.27-13.15 75.5-12.15 74-11.53 72.5-10.9 70.5-10.9L70.5-10.9Q69.59-10.9 69.02-11 68.45-11.1 67.82-11.43 67.2-11.75 66.9-12.5 66.59-13.25 66.59-14.4L66.59-14.4Q66.59-15.4 66.97-16.82 67.34-18.25 67.34-18.7ZM98.09-26.1L98.09-26.1Q95.94-26.1 94.92-24.85 93.89-23.6 93.89-20.4L93.89-20.4 93.89-14.5 102.19-14.5 102.19-20.5Q102.19-22.6 101.69-23.88 101.19-25.15 100.32-25.63 99.44-26.1 98.09-26.1ZM102.19-4.95L102.19-7.6 93.89-7.6 93.89-4.95Q93.89-2.4 92.54-1.2 91.19 0 87.89 0L87.89 0Q86.49 0 85.59-0.4 84.69-0.8 84.02-1.75 83.34-2.7 83.02-4.53 82.69-6.35 82.52-8.93 82.34-11.5 82.34-15.45L82.34-15.45Q82.34-18.9 83.07-21.78 83.79-24.65 85.02-26.65 86.24-28.65 87.79-30.18 89.34-31.7 91.17-32.55 92.99-33.4 94.72-33.83 96.44-34.25 98.19-34.25L98.19-34.25Q100.29-34.25 102.34-33.68 104.39-33.1 106.49-31.7 108.59-30.3 110.17-28.23 111.74-26.15 112.74-22.85 113.74-19.55 113.74-15.45L113.74-15.45Q113.74-8.85 113.27-5.68 112.79-2.5 111.67-1.25 110.54 0 108.19 0L108.19 0Q104.89 0 103.54-1.2 102.19-2.4 102.19-4.95L102.19-4.95ZM130.79-28.7L130.79-7.5Q130.79-3.6 129.34-1.8 127.89 0 124.94 0L124.94 0Q122.04 0 120.67-1.55 119.29-3.1 119.29-7.1L119.29-7.1 119.29-28.25Q119.29-34.25 124.94-34.25L124.94-34.25Q127.84-34.25 129.32-33.15 130.79-32.05 130.79-28.7L130.79-28.7Z" opacity="1" transform="matrix(1,0,0,1,0,0)" fill="#ffffff" class="wordmark-text-0" data-fill-palette-color="primary" id="text-0"></path></svg></g></svg></g></svg></g></svg></g><g><svg viewBox="0 0 144.14228450468823 149.54185493542076" height="149.54185493542076" width="144.14228450468823"><g><svg xmlns="http://www.w3.org/2000/svg" data-name="Layer 1" viewBox="16.899928772258626 15.68 66.20014245548273 68.68" x="0" y="0" height="149.54185493542076" width="144.14228450468823" class="icon-icon-0" data-fill-palette-color="accent" id="icon-0"><path d="M76.71 46.91H58.09a6.33 6.33 0 0 1-6.32-6.33V22a6.33 6.33 0 0 1 6.32-6.32H76.71A6.34 6.34 0 0 1 83 22V40.58A6.34 6.34 0 0 1 76.71 46.91ZM58.09 17.64A4.33 4.33 0 0 0 53.77 22V40.58a4.33 4.33 0 0 0 4.32 4.33H76.71A4.33 4.33 0 0 0 81 40.58V22a4.33 4.33 0 0 0-4.33-4.32Z" fill="#ffffff" data-fill-palette-color="accent"></path><path d="M76.78 84.36H58.15A6.33 6.33 0 0 1 51.83 78V59.42a6.34 6.34 0 0 1 6.32-6.33H76.78a6.34 6.34 0 0 1 6.32 6.33V78A6.33 6.33 0 0 1 76.78 84.36ZM58.15 55.09a4.33 4.33 0 0 0-4.32 4.33V78a4.33 4.33 0 0 0 4.32 4.32H76.78A4.33 4.33 0 0 0 81.1 78V59.42a4.33 4.33 0 0 0-4.32-4.33Z" fill="#ffffff" data-fill-palette-color="accent"></path><path d="M41.85 84.36H23.22A6.33 6.33 0 0 1 16.9 78V59.42a6.34 6.34 0 0 1 6.32-6.33H41.85a6.34 6.34 0 0 1 6.32 6.33V78A6.33 6.33 0 0 1 41.85 84.36ZM23.22 55.09a4.33 4.33 0 0 0-4.32 4.33V78a4.33 4.33 0 0 0 4.32 4.32H41.85A4.33 4.33 0 0 0 46.17 78V59.42a4.33 4.33 0 0 0-4.32-4.33Z" fill="#ffffff" data-fill-palette-color="accent"></path><path d="M41.85 46.91H23.22a6.34 6.34 0 0 1-6.32-6.33V22a6.33 6.33 0 0 1 6.32-6.32H41.85A6.33 6.33 0 0 1 48.17 22V40.58A6.34 6.34 0 0 1 41.85 46.91ZM23.22 17.64A4.33 4.33 0 0 0 18.9 22V40.58a4.33 4.33 0 0 0 4.32 4.33H41.85a4.33 4.33 0 0 0 4.32-4.33V22a4.33 4.33 0 0 0-4.32-4.32Z" fill="#ffffff" data-fill-palette-color="accent"></path></svg></g></svg></g></svg></g><defs></defs></svg><rect width="395.52" height="98.49417784858912" fill="none" stroke="none" visibility="hidden"></rect></g></svg></g></svg>